<svg id="Capa_1" data-name="Capa 1" xmlns="http://www.w3.org/2000/svg" viewBox="0 0 82.47 50"><defs><style>.cls-1{fill:#504485;}</style></defs><title>logo</title><path class="cls-1" d="M67.74,5a21.37,21.37,0,0,1,7.13,7.7,20.78,20.78,0,0,1,2.47,10,20.77,20.77,0,0,1-2.47,10,21.37,21.37,0,0,1-7.13,7.7,2,2,0,0,1-1.1.33,1.83,1.83,0,0,1-1.48-.7,2.23,2.23,0,0,1-.57-1.43,2.06,2.06,0,0,1,.86-1.63,17.43,17.43,0,0,0,5.21-6.38,18.19,18.19,0,0,0,1.74-7.88,18.93,18.93,0,0,0-1.72-8A15.48,15.48,0,0,0,65.45,8.4a1.9,1.9,0,0,1-.86-1.63,2.12,2.12,0,0,1,.62-1.45,1.86,1.86,0,0,1,1.43-.68A2,2,0,0,1,67.74,5Z"/><path class="cls-1" d="M17.31,5.34a2.23,2.23,0,0,1,.57,1.43A2,2,0,0,1,17,8.4a17.61,17.61,0,0,0-5.21,6.38,18.34,18.34,0,0,0-1.73,7.89,19.1,19.1,0,0,0,1.71,8A15.53,15.53,0,0,0,17,36.93a1.89,1.89,0,0,1,.86,1.63A2.11,2.11,0,0,1,17.27,40a1.9,1.9,0,0,1-2.53.35,21.4,21.4,0,0,1-7.14-7.7,20.88,20.88,0,0,1-2.47-10,20.89,20.89,0,0,1,2.47-10A21.4,21.4,0,0,1,14.74,5a1.9,1.9,0,0,1,1.1-.33A1.83,1.83,0,0,1,17.31,5.34Z"/><path class="cls-1" d="M53.06,8.86A1.38,1.38,0,0,1,52.73,8a1.54,1.54,0,0,1,.44-1.08,1.37,1.37,0,0,1,1-.47,2.46,2.46,0,0,1,.54,0q3.72.75,5.16,2.43a6.58,6.58,0,0,1,1.45,4.46L61.28,17A4.26,4.26,0,0,0,62.15,20,3.22,3.22,0,0,0,64.5,21h.14a1.61,1.61,0,0,1,1.17.46,1.7,1.7,0,0,1,0,2.39,1.62,1.62,0,0,1-1.17.47h-.22a3.07,3.07,0,0,0-2.29,1,4.39,4.39,0,0,0-.85,2.92L61.36,32a6.56,6.56,0,0,1-1.45,4.46q-1.44,1.68-5.16,2.44a2.24,2.24,0,0,1-.43,0,1.47,1.47,0,0,1-1.17-.47,1.65,1.65,0,0,1-.42-1.15,1.32,1.32,0,0,1,.35-.87,2,2,0,0,1,.88-.57,7.15,7.15,0,0,0,2.16-1.11,2.7,2.7,0,0,0,1-1.37,6.87,6.87,0,0,0,.24-2l-.08-3.75a4.85,4.85,0,0,1,1-3.16,5.89,5.89,0,0,1,2.72-1.78,5.86,5.86,0,0,1-2.72-1.81,4.84,4.84,0,0,1-1-3.14L57.32,14a6.29,6.29,0,0,0-.26-2,3,3,0,0,0-1-1.36A7.65,7.65,0,0,0,54,9.5,2,2,0,0,1,53.06,8.86Z"/><path class="cls-1" d="M17,23.87a1.69,1.69,0,0,1,0-2.38A1.64,1.64,0,0,1,18.18,21h.22a3.07,3.07,0,0,0,2.29-1,4.39,4.39,0,0,0,.85-2.92l-.08-3.68a6.61,6.61,0,0,1,1.45-4.46q1.44-1.68,5.16-2.44a3.93,3.93,0,0,1,.61-.07,1.2,1.2,0,0,1,1,.54,1.85,1.85,0,0,1,.4,1.12,1.36,1.36,0,0,1-.34.87,2,2,0,0,1-.89.57,7.4,7.4,0,0,0-2.16,1.1,2.9,2.9,0,0,0-1,1.38,6.91,6.91,0,0,0-.23,2l.07,3.75a4.85,4.85,0,0,1-1,3.16,5.91,5.91,0,0,1-2.72,1.78,5.8,5.8,0,0,1,2.72,1.81,4.84,4.84,0,0,1,1,3.14l-.07,3.75a6.32,6.32,0,0,0,.25,2,3.1,3.1,0,0,0,.95,1.36,7.65,7.65,0,0,0,2.15,1.13,2,2,0,0,1,.9.63,1.42,1.42,0,0,1,.33.89,1.57,1.57,0,0,1-.43,1.08,1.39,1.39,0,0,1-1.05.47,2.46,2.46,0,0,1-.54,0q-3.72-.75-5.16-2.43A6.63,6.63,0,0,1,21.46,32l.08-3.68a4.26,4.26,0,0,0-.87-2.92,3.21,3.21,0,0,0-2.34-1.05h-.15A1.6,1.6,0,0,1,17,23.87Z"/><path class="cls-1" d="M49.74,23.11a1.84,1.84,0,0,1-1.26.47H35a6.59,6.59,0,0,0,2.12,4.47,6.47,6.47,0,0,0,4.52,1.68,7.16,7.16,0,0,0,3-.53,7.58,7.58,0,0,0,2-1.38,2.13,2.13,0,0,1,1.1-.34,1.42,1.42,0,0,1,1.09.46A1.46,1.46,0,0,1,49.32,29a1.88,1.88,0,0,1-.76,1.45,9,9,0,0,1-2.94,1.87,9.67,9.67,0,0,1-3.75.76,11,11,0,0,1-5.44-1.3,9,9,0,0,1-3.63-3.62,10.82,10.82,0,0,1-1.28-5.27,11.63,11.63,0,0,1,1.32-5.64,9.49,9.49,0,0,1,3.48-3.72A8.77,8.77,0,0,1,41,12.24a8.88,8.88,0,0,1,4.58,1.26A9.62,9.62,0,0,1,49,17a10,10,0,0,1,1.33,5A1.61,1.61,0,0,1,49.74,23.11ZM37.25,16.8a6,6,0,0,0-2.06,3.73H46.46v-.31a4.64,4.64,0,0,0-1.82-3.32A5.71,5.71,0,0,0,41,15.6,5.93,5.93,0,0,0,37.25,16.8Z"/><path class="cls-1" d="M16.78,43.26V44h.84a.14.14,0,0,1,.16.16.15.15,0,0,1,0,.11.21.21,0,0,1-.12,0h-.84v.89a.17.17,0,0,1-.16.16.13.13,0,0,1-.12,0,.16.16,0,0,1-.05-.11v-2A.17.17,0,0,1,16.5,43a.16.16,0,0,1,.11-.05h1.16a.17.17,0,0,1,.12.05.16.16,0,0,1,.05.11.14.14,0,0,1-.05.11.17.17,0,0,1-.12,0Z"/><path class="cls-1" d="M20.91,45.11a.19.19,0,0,1,0,.07s0,.09-.05.11a.18.18,0,0,1-.11,0,.17.17,0,0,1-.1,0,.37.37,0,0,1-.17-.18.92.92,0,0,1-.07-.38.28.28,0,0,0-.1-.25.36.36,0,0,0-.26-.09h-.69v.77a.16.16,0,0,1,0,.12.13.13,0,0,1-.1,0,.17.17,0,0,1-.14,0,.13.13,0,0,1-.05-.11v-2a.16.16,0,0,1,0-.12.18.18,0,0,1,.12-.05h.95a.64.64,0,0,1,.34.09.72.72,0,0,1,.24.25.65.65,0,0,1,0,.71.63.63,0,0,1-.26.25.44.44,0,0,1,.2.18.48.48,0,0,1,.08.27,2.36,2.36,0,0,0,0,.26.14.14,0,0,0,.08.1ZM20.32,44a.4.4,0,0,0,.12-.16.59.59,0,0,0,0-.23.4.4,0,0,0-.1-.28.34.34,0,0,0-.24-.11h-.77v.85h.78A.23.23,0,0,0,20.32,44Z"/><path class="cls-1" d="M24,44.75a1,1,0,0,1-.41.44,1.07,1.07,0,0,1-.59.17,1.14,1.14,0,0,1-1-.61,1.26,1.26,0,0,1-.15-.62,1.29,1.29,0,0,1,.15-.62,1.24,1.24,0,0,1,.41-.44,1.09,1.09,0,0,1,.59-.16,1.07,1.07,0,0,1,.59.16,1.15,1.15,0,0,1,.41.44,1.29,1.29,0,0,1,.15.62A1.26,1.26,0,0,1,24,44.75Zm-.3-1.08a.87.87,0,0,0-.28-.32.76.76,0,0,0-.42-.12.76.76,0,0,0-.69.44,1,1,0,0,0-.11.46,1,1,0,0,0,.11.46.75.75,0,0,0,.28.33A.81.81,0,0,0,23,45a.85.85,0,0,0,.42-.11.83.83,0,0,0,.28-.33,1,1,0,0,0,.1-.46A1,1,0,0,0,23.71,43.67Z"/><path class="cls-1" d="M27.15,43a.13.13,0,0,1,0,.1v2.07a.16.16,0,0,1-.05.11.13.13,0,0,1-.11,0H27a.1.1,0,0,1-.05,0l-1.34-1.73v1.63a.14.14,0,0,1-.15.15.13.13,0,0,1-.1,0,.14.14,0,0,1,0-.11V43.11a.16.16,0,0,1,0-.12.17.17,0,0,1,.12-.05l.08,0a.1.1,0,0,1,0,0l1.33,1.74V43.09a.14.14,0,0,1,.05-.1.12.12,0,0,1,.1-.05A.14.14,0,0,1,27.15,43Z"/><path class="cls-1" d="M30.09,43a.14.14,0,0,1,.05.11.13.13,0,0,1-.05.11.16.16,0,0,1-.12,0h-.6v1.91a.16.16,0,0,1-.05.11.13.13,0,0,1-.12,0,.17.17,0,0,1-.13,0,.16.16,0,0,1-.05-.11V43.25h-.6a.14.14,0,0,1-.11,0,.15.15,0,0,1,0-.22.14.14,0,0,1,.11-.05H30A.17.17,0,0,1,30.09,43Z"/><path class="cls-1" d="M32.67,45.06a.17.17,0,0,1,0,.22.16.16,0,0,1-.12,0H31.37a.15.15,0,0,1-.12,0,.15.15,0,0,1,0-.11v-2a.16.16,0,0,1,0-.12.18.18,0,0,1,.12-.05h1.18a.17.17,0,0,1,.12.05.15.15,0,0,1,0,.11.12.12,0,0,1,0,.11.17.17,0,0,1-.12,0h-1V44h.86a.14.14,0,0,1,.16.16.15.15,0,0,1,0,.11.16.16,0,0,1-.12,0h-.86V45h1A.17.17,0,0,1,32.67,45.06Z"/><path class="cls-1" d="M35.7,43a.13.13,0,0,1,0,.1v2.07a.15.15,0,0,1,0,.11.13.13,0,0,1-.12,0h-.07l-.06,0-1.33-1.73v1.63a.18.18,0,0,1,0,.11.15.15,0,0,1-.11,0,.14.14,0,0,1-.11,0,.18.18,0,0,1,0-.11V43.11a.17.17,0,0,1,0-.12.16.16,0,0,1,.11-.05l.08,0,.06,0,1.33,1.74V43.09a.13.13,0,0,1,0-.1.16.16,0,0,1,.11-.05A.12.12,0,0,1,35.7,43Z"/><path class="cls-1" d="M38.53,43.1a1.06,1.06,0,0,1,.35.43,1.72,1.72,0,0,1,0,1.21,1,1,0,0,1-.35.42.89.89,0,0,1-.54.16h-.84a.15.15,0,0,1-.12,0,.15.15,0,0,1,0-.11v-2A.16.16,0,0,1,37,43a.18.18,0,0,1,.12-.05H38A1,1,0,0,1,38.53,43.1Zm-.06,1.66a1,1,0,0,0,.17-.63,1.06,1.06,0,0,0-.17-.63.61.61,0,0,0-.52-.24h-.63V45H38A.58.58,0,0,0,38.47,44.76Z"/><path class="cls-1" d="M43.27,43.1a1,1,0,0,1,.34.43,1.46,1.46,0,0,1,.11.6,1.48,1.48,0,0,1-.11.61,1,1,0,0,1-.34.42.94.94,0,0,1-.55.16h-.84a.13.13,0,0,1-.11,0,.16.16,0,0,1-.05-.11v-2a.17.17,0,0,1,.05-.12.16.16,0,0,1,.11-.05h.84A1,1,0,0,1,43.27,43.1Zm-.06,1.66a1.09,1.09,0,0,0,.17-.63,1.07,1.07,0,0,0-.18-.63.59.59,0,0,0-.51-.24h-.63V45h.63A.59.59,0,0,0,43.21,44.76Z"/><path class="cls-1" d="M46.3,45.06a.17.17,0,0,1,0,.22.16.16,0,0,1-.12,0H45a.13.13,0,0,1-.12,0,.15.15,0,0,1,0-.11v-2a.16.16,0,0,1,0-.12.17.17,0,0,1,.12-.05h1.18a.17.17,0,0,1,.12.05.15.15,0,0,1,0,.11.12.12,0,0,1,0,.11.17.17,0,0,1-.12,0h-1V44H46a.15.15,0,0,1,.11,0,.13.13,0,0,1,0,.12.13.13,0,0,1,0,.11.15.15,0,0,1-.11,0h-.86V45h1A.17.17,0,0,1,46.3,45.06Z"/><path class="cls-1" d="M49.3,43a.12.12,0,0,1,.05.1.24.24,0,0,1,0,.08l-.87,2a.12.12,0,0,1-.07.07.16.16,0,0,1-.09,0,.13.13,0,0,1-.08,0,.11.11,0,0,1-.06-.07l-.87-2a.15.15,0,0,1,0-.07.13.13,0,0,1,0-.12.15.15,0,0,1,.11,0,.15.15,0,0,1,.15.11l.74,1.75L49,43l.06-.07.09,0A.21.21,0,0,1,49.3,43Z"/><path class="cls-1" d="M51.87,45.06a.15.15,0,0,1,0,.22.15.15,0,0,1-.11,0H50.57a.13.13,0,0,1-.11,0,.16.16,0,0,1-.05-.11v-2a.17.17,0,0,1,.05-.12.16.16,0,0,1,.11-.05h1.19a.17.17,0,0,1,.16.16.13.13,0,0,1-.05.11.16.16,0,0,1-.11,0h-1V44h.85a.16.16,0,0,1,.12,0,.17.17,0,0,1,.05.12.15.15,0,0,1-.17.15h-.85V45h1A.16.16,0,0,1,51.87,45.06Z"/><path class="cls-1" d="M54.45,45.05a.13.13,0,0,1,0,.12.13.13,0,0,1,0,.11.14.14,0,0,1-.11,0H53.19a.13.13,0,0,1-.12,0,.15.15,0,0,1,0-.11v-2a.16.16,0,0,1,0-.12.21.21,0,0,1,.13-.05.16.16,0,0,1,.11.05.13.13,0,0,1,0,.12V45h1A.14.14,0,0,1,54.45,45.05Z"/><path class="cls-1" d="M57.55,44.75a1,1,0,0,1-.41.44,1.07,1.07,0,0,1-.59.17,1.14,1.14,0,0,1-1-.61,1.26,1.26,0,0,1-.15-.62,1.29,1.29,0,0,1,.15-.62,1.24,1.24,0,0,1,.41-.44,1.09,1.09,0,0,1,.59-.16,1.07,1.07,0,0,1,.59.16,1.15,1.15,0,0,1,.41.44,1.29,1.29,0,0,1,.15.62A1.26,1.26,0,0,1,57.55,44.75Zm-.3-1.08a.81.81,0,0,0-.29-.32.71.71,0,0,0-.41-.12.76.76,0,0,0-.69.44,1,1,0,0,0-.11.46,1,1,0,0,0,.11.46.75.75,0,0,0,.28.33.81.81,0,0,0,.41.11.78.78,0,0,0,.41-.11.78.78,0,0,0,.29-.33,1,1,0,0,0,.1-.46A1,1,0,0,0,57.25,43.67Z"/><path class="cls-1" d="M60.09,43a.75.75,0,0,1,.24.26.81.81,0,0,1,.09.37.75.75,0,0,1-.09.37.78.78,0,0,1-.24.27.56.56,0,0,1-.33.1h-.64v.75a.16.16,0,0,1,0,.11s-.06,0-.11,0a.15.15,0,0,1-.11,0,.16.16,0,0,1,0-.12v-2a.16.16,0,0,1,0-.12.18.18,0,0,1,.12-.05h.79A.64.64,0,0,1,60.09,43Zm-.16,1a.4.4,0,0,0,.12-.16.46.46,0,0,0,.05-.21.48.48,0,0,0-.1-.29.31.31,0,0,0-.24-.12h-.64v.84h.64A.27.27,0,0,0,59.93,44Z"/><path class="cls-1" d="M63,45.06a.17.17,0,0,1,0,.22.17.17,0,0,1-.12,0H61.69a.13.13,0,0,1-.12,0,.16.16,0,0,1,0-.11v-2a.17.17,0,0,1,.17-.17h1.18A.18.18,0,0,1,63,43a.15.15,0,0,1,0,.11.12.12,0,0,1,0,.11.18.18,0,0,1-.12,0h-1V44h.86a.15.15,0,0,1,.11,0,.17.17,0,0,1,.05.12.16.16,0,0,1-.05.11.15.15,0,0,1-.11,0h-.86V45h1A.18.18,0,0,1,63,45.06Z"/><path class="cls-1" d="M66,45.11a.1.1,0,0,1,0,.07.12.12,0,0,1,0,.11.2.2,0,0,1-.11,0,.18.18,0,0,1-.11,0,.37.37,0,0,1-.17-.18.94.94,0,0,1-.06-.38.31.31,0,0,0-.1-.25.4.4,0,0,0-.27-.09h-.69v.77a.16.16,0,0,1,0,.12.12.12,0,0,1-.1,0,.19.19,0,0,1-.14,0,.16.16,0,0,1,0-.11v-2a.13.13,0,0,1,0-.12.16.16,0,0,1,.11-.05h1a.63.63,0,0,1,.33.09.75.75,0,0,1,.25.25.71.71,0,0,1,0,.71.72.72,0,0,1-.27.25.44.44,0,0,1,.2.18.48.48,0,0,1,.08.27,2.36,2.36,0,0,0,0,.26.16.16,0,0,0,.08.1ZM65.41,44a.4.4,0,0,0,.12-.16.46.46,0,0,0,0-.23.4.4,0,0,0-.1-.28.34.34,0,0,0-.24-.11h-.77v.85h.78A.21.21,0,0,0,65.41,44Z"/></svg>